<svg id="Capa_1" data-name="Capa 1" xmlns="http://www.w3.org/2000/svg" viewBox="0 0 478.2 478.2"><title>dislike</title><path d="M20.63,153.1c-9.8,12.5-14.5,25.9-13.9,39.7.6,15.2,7.4,27.1,13,34.4-6.5,16.2-9,41.7,12.7,61.5,15.9,14.5,42.9,21,80.3,19.2a313.83,313.83,0,0,0,49.2-6.3h.1c5-.9,10.3-2,15.7-3.2.4,6.4-.7,22.3-12.5,58.1-14,42.6-13.2,75.2,2.6,97,16.6,22.9,43.1,24.7,50.9,24.7a25.11,25.11,0,0,0,19.3-8.8c11.1-12.9,9.8-36.7,8.4-47.7,13.2-35.4,50.2-122.2,81.5-146.3a10.7,10.7,0,0,0,1.6-1.4,107.42,107.42,0,0,0,19.6-29.4,41.27,41.27,0,0,0,19.8,5h61a41.63,41.63,0,0,0,41.6-41.6V45.5a41.63,41.63,0,0,0-41.6-41.6h-61a41.51,41.51,0,0,0-24,7.6l-23.5-2.8c-3.6-.5-67.6-8.6-133.3-7.3C176.23.5,165,0,154.63,0c-17.9,0-33.5,1.4-46.5,4.2C77.53,10.7,56.63,23.7,46,42.8a61.21,61.21,0,0,0-6.8,38.3c-19.9,18-23.4,37.9-22.7,51.9A67.55,67.55,0,0,0,20.63,153.1ZM429.93,30.9a14.62,14.62,0,0,1,14.6,14.6V208.1a14.62,14.62,0,0,1-14.6,14.6h-61a14.62,14.62,0,0,1-14.6-14.6V45.6A14.62,14.62,0,0,1,368.93,31h61ZM46.23,164.8A13.44,13.44,0,0,0,48,148.5a41.61,41.61,0,0,1-4.6-16.7c-.7-13.1,5.6-24.7,18.8-34.6a13.63,13.63,0,0,0,4.6-15.4c0-.1-4.3-13.3,2.7-25.8,6.7-12,21.6-20.6,44.2-25.4,18.1-3.9,42.7-4.6,72.9-2.2H188c64.3-1.4,129.3,7,130,7.1h.1l10.1,1.2a42.37,42.37,0,0,0-.9,8.8V208.1a42.3,42.3,0,0,0,1.9,12.4c-1.8,6.7-6.8,21.6-18.6,34.3-44.9,35.6-88.8,155.7-90.7,160.9a12.66,12.66,0,0,0-.6,6.7c1.7,11.2,1.1,24.9-1.3,29-5.3-.1-19.6-1.6-28.2-13.5-10.2-14.1-9.8-39.3,1.2-72.7,16.8-50.9,18.2-77.7,4.9-89.5-6.6-5.9-15.4-6.2-21.8-3.9-6.1,1.4-11.9,2.6-17.4,3.5l-1.3.3c-30.7,6.7-85.7,10.8-104.8-6.6-16.2-14.8-4.7-34.4-3.4-36.5a13.37,13.37,0,0,0-2.4-17.4c-.1-.1-10.6-10-11.1-23.3C33.33,182.9,37.53,173.8,46.23,164.8Z"/></svg>