<svg id="Layer_1" data-name="Layer 1" xmlns="http://www.w3.org/2000/svg" xmlns:xlink="http://www.w3.org/1999/xlink" viewBox="0 0 409.92 410.88"><defs><style>.cls-1{fill:none;}.cls-2{clip-path:url(#clip-path);}</style><clipPath id="clip-path"><rect class="cls-1" width="409.92" height="410.88"/></clipPath></defs><title>Artboard 1</title><g class="cls-2"><path d="M128.19,221.58l-115.6-128A25.5,25.5,0,0,0,0,115.52v204.8a25.6,25.6,0,0,0,25.6,25.6H240.5l-47.09-52.14a76.68,76.68,0,0,1-65.22-72.21Zm0,0"/><path d="M384,89.92H294.4L275.88,52.87A25.6,25.6,0,0,0,253,38.72H156.62a25.6,25.6,0,0,0-22.9,14.15l-8.67,17.34L70.23,8.8A25.6,25.6,0,1,0,32.18,43l320,358.4a25.6,25.6,0,1,0,38.05-34.25l-19-21.27H384a25.6,25.6,0,0,0,25.6-25.6V115.52A25.6,25.6,0,0,0,384,89.92ZM189.76,142.67a76.45,76.45,0,0,1,88.06,98.63Zm0,0"/></g></svg>