<svg id="Layer_1" data-name="Layer 1" xmlns="http://www.w3.org/2000/svg" viewBox="0 0 391.04 391.04"><defs><style>.cls-1{fill:#2c2f33;}.cls-2{fill:#3c92ca;}</style></defs><title>options</title><path class="cls-1" d="M391,306.4V7.92A7.89,7.89,0,0,0,383.12,0H84.64a7.89,7.89,0,0,0-7.92,7.92V306.4a7.89,7.89,0,0,0,7.92,7.92H383.12A7.89,7.89,0,0,0,391,306.4Zm-15.84-7.92H92.56V15.84H375.2Zm0,0"/><path class="cls-1" d="M7.92,391H306.4a7.92,7.92,0,1,0,0-15.84H15.84V84.64A7.92,7.92,0,1,0,0,84.64V383.12A7.89,7.89,0,0,0,7.92,391Zm0,0"/><path class="cls-2" d="M169.44,165H226V221.6a7.92,7.92,0,0,0,15.84,0V165H298.4a7.92,7.92,0,1,0,0-15.84H241.84V92.64a7.92,7.92,0,1,0-15.84,0V149.2H169.44a7.92,7.92,0,1,0,0,15.84Zm0,0"/></svg>