<svg id="Layer_1" data-name="Layer 1" xmlns="http://www.w3.org/2000/svg" viewBox="0 0 72.27 81.6"><title>pdf</title><path d="M19.09,41.81c0-2.2-1.53-3.51-4.22-3.51a9,9,0,0,0-2.23.21v7.05a8.31,8.31,0,0,0,1.81.14c2.87,0,4.64-1.45,4.64-3.9Zm0,0"/><path d="M35.76,38.37a11.2,11.2,0,0,0-2.45.22V54.22a9.72,9.72,0,0,0,1.88.11c4.89,0,8.08-2.66,8.08-8.37,0-5-2.87-7.59-7.52-7.59Zm0,0"/><path d="M67.69,29.19h-2V19.73a1.36,1.36,0,0,0,0-.18,1.57,1.57,0,0,0-.38-1L49.6.55h0a1.56,1.56,0,0,0-.32-.26L49.17.21a1.58,1.58,0,0,0-.32-.13l-.09,0a1.66,1.66,0,0,0-.37,0H9.73a3.21,3.21,0,0,0-3.2,3.2v26h-2A4.57,4.57,0,0,0,0,33.76V57.54a4.57,4.57,0,0,0,4.57,4.57h2V78.4a3.21,3.21,0,0,0,3.2,3.2h52.8a3.21,3.21,0,0,0,3.2-3.2V62.12h2a4.58,4.58,0,0,0,4.57-4.57V33.76a4.57,4.57,0,0,0-4.57-4.57Zm-58-26H46.8V19.57a1.6,1.6,0,0,0,1.6,1.6H62.53v8H9.73ZM49,45.78c0,4.57-1.67,7.73-4,9.68-2.52,2.09-6.34,3.08-11,3.08a47.17,47.17,0,0,1-6.13-.35V34.72a48,48,0,0,1,7.3-.5c4.54,0,7.48.81,9.78,2.55,2.48,1.84,4,4.79,4,9ZM7.29,58.3V34.72a44,44,0,0,1,7.3-.5c3.33,0,5.71.64,7.31,1.91a7,7,0,0,1,2.55,5.53,7.62,7.62,0,0,1-2.2,5.67c-1.84,1.73-4.57,2.52-7.76,2.52a13.75,13.75,0,0,1-1.84-.11V58.3ZM62.53,77.54H9.73V62.12h52.8Zm4.64-38.7H58v5.46h8.58v4.39H58V58.3H52.57V34.4h14.6Zm0,0"/></svg>