<svg id="Layer_1" data-name="Layer 1" xmlns="http://www.w3.org/2000/svg" viewBox="0 0 125.14 108.46"><title>photo</title><path d="M120.25,21.58a16.08,16.08,0,0,0-11.8-4.89H93.86L90.53,7.82A12.15,12.15,0,0,0,86,2.31,11.63,11.63,0,0,0,79.26,0H45.89a11.62,11.62,0,0,0-6.75,2.31,12.13,12.13,0,0,0-4.53,5.51l-3.32,8.86H16.69a16.08,16.08,0,0,0-11.8,4.89A16.07,16.07,0,0,0,0,33.37v58.4a16.08,16.08,0,0,0,4.89,11.8,16.08,16.08,0,0,0,11.8,4.89h91.77a16.68,16.68,0,0,0,16.68-16.68V33.37a16.07,16.07,0,0,0-4.89-11.8ZM83.2,83.2a28.13,28.13,0,0,1-20.63,8.57A28.14,28.14,0,0,1,41.94,83.2a28.13,28.13,0,0,1-8.57-20.63,28.13,28.13,0,0,1,8.57-20.63,28.12,28.12,0,0,1,20.63-8.58A28.12,28.12,0,0,1,83.2,41.95a28.11,28.11,0,0,1,8.57,20.63A28.13,28.13,0,0,1,83.2,83.2Zm0,0"/><path d="M62.57,43.8A18.81,18.81,0,0,0,43.8,62.57,18.81,18.81,0,0,0,62.57,81.34,18.81,18.81,0,0,0,81.34,62.57,18.81,18.81,0,0,0,62.57,43.8Zm0,0"/></svg>