<svg id="Layer_1" data-name="Layer 1" xmlns="http://www.w3.org/2000/svg" viewBox="0 0 431.26 359.39"><title>review</title><path d="M62.89,359.39a9,9,0,0,1-9-9V287.51H27a27,27,0,0,1-27-27V27A27,27,0,0,1,27,0H404.31a27,27,0,0,1,27,27v233.6a27,27,0,0,1-27,27H138.49L69.25,356.75a9,9,0,0,1-6.36,2.63ZM27,18a9,9,0,0,0-9,9v233.6a9,9,0,0,0,9,9H62.89a9,9,0,0,1,9,9v50.19l56.54-56.54a9,9,0,0,1,6.35-2.63H404.31a9,9,0,0,0,9-9V27a9,9,0,0,0-9-9Zm0,0"/><path d="M152.74,161.72a18,18,0,1,1,18-18,18,18,0,0,1-18,18Zm0,0"/><path d="M296.49,161.72a18,18,0,1,1,18-18,18,18,0,0,1-18,18Zm0,0"/><path d="M224.61,161.72a18,18,0,1,1,18-18,18,18,0,0,1-18,18Zm0,0"/></svg>