<svg id="Layer_1" data-name="Layer 1" xmlns="http://www.w3.org/2000/svg" xmlns:xlink="http://www.w3.org/1999/xlink" viewBox="0 0 267.84 192.96"><defs><style>.cls-1{fill:none;}.cls-2{clip-path:url(#clip-path);}</style><clipPath id="clip-path"><rect class="cls-1" width="267.84" height="192.96"/></clipPath></defs><title>video</title><g class="cls-2"><path d="M140.26,192h0c-30.44,0-63.58-1-98.5-2.84-20.62-1.13-36.63-17-38.91-38.68A516.67,516.67,0,0,1,2.86,42C5.13,20.51,21.11,4.61,41.72,3.32A1493,1493,0,0,1,226,3.32C246.82,4.58,262.43,20.1,264.85,42a517.83,517.83,0,0,1,0,108.51c-2.2,21.63-17.8,37.18-38.83,38.68C199.56,191,170.71,192,140.26,192ZM133.14,10.75c-30.34,0-60.89,1-90.79,2.83-15.75,1-27.51,12.84-29.28,29.48a506.67,506.67,0,0,0,0,106.34c1.77,16.78,13.51,28.63,29.23,29.49,34.73,1.87,67.69,2.83,97.94,2.83s58.81-1,85-2.82c15.87-1.14,27.66-13,29.33-29.47a506.13,506.13,0,0,0,0-106.34c-1.83-16.69-13.6-28.55-29.27-29.5-30.82-1.88-61.85-2.83-92.2-2.83ZM107.66,59.81v70.57l67.77-35Zm0,0"/></g></svg>