<!DOCTYPE svg PUBLIC "-//W3C//DTD SVG 1.1//EN" "http://www.w3.org/Graphics/SVG/1.1/DTD/svg11.dtd"><svg xmlns="http://www.w3.org/2000/svg" xmlns:xlink="http://www.w3.org/1999/xlink"><symbol id="cart" viewBox="0 0 475.084 475.085" style="enable-background:new 0 0 475.084 475.085;" xml:space="preserve" xmlns="http://www.w3.org/2000/svg">
<g>
	<g>
		<path d="M365.446,401.998c0,10.092,3.579,18.702,10.711,25.834c7.132,7.139,15.749,10.711,25.845,10.711
			c10.081,0,18.698-3.572,25.83-10.711c7.139-7.132,10.711-15.742,10.711-25.834s-3.568-18.702-10.711-25.841
			c-7.132-7.132-15.749-10.704-25.83-10.704c-10.096,0-18.713,3.572-25.845,10.704C369.025,383.296,365.446,391.906,365.446,401.998
			z"/>
		<path d="M469.658,78.51c-3.618-3.617-7.898-5.426-12.848-5.426H113.918c-0.193-1.331-0.621-3.756-1.287-7.277
			c-0.666-3.523-1.188-6.329-1.569-8.425c-0.383-2.087-1.093-4.611-2.142-7.561c-1.047-2.952-2.284-5.286-3.711-6.995
			c-1.425-1.718-3.328-3.189-5.708-4.43c-2.378-1.233-5.092-1.853-8.136-1.853H18.276c-4.952,0-9.234,1.812-12.85,5.424
			C1.809,45.583,0,49.868,0,54.816s1.809,9.231,5.426,12.847c3.619,3.617,7.902,5.424,12.85,5.424h58.237l50.532,234.976
			c-0.378,0.76-2.329,4.373-5.852,10.848c-3.521,6.475-6.328,12.135-8.42,16.988c-2.093,4.859-3.14,8.616-3.14,11.279
			c0,4.948,1.809,9.232,5.424,12.854c3.621,3.606,7.902,5.421,12.851,5.421h18.272h255.815h18.261c4.948,0,9.232-1.814,12.847-5.421
			c3.62-3.621,5.427-7.905,5.427-12.854c0-4.949-1.807-9.233-5.427-12.847c-3.614-3.614-7.898-5.428-12.847-5.428h-262.66
			c4.57-9.138,6.854-15.222,6.854-18.268c0-1.909-0.238-4.004-0.715-6.283s-1.047-4.805-1.713-7.569
			c-0.667-2.752-1.093-4.799-1.283-6.133l298.077-34.831c4.753-0.575,8.658-2.614,11.703-6.14c3.046-3.518,4.565-7.562,4.565-12.133
			V91.363C475.082,86.415,473.278,82.132,469.658,78.51z"/>
		<path d="M109.632,401.998c0,10.092,3.567,18.702,10.706,25.834c7.141,7.139,15.75,10.711,25.841,10.711
			c10.085,0,18.699-3.572,25.835-10.711c7.139-7.132,10.71-15.742,10.71-25.834s-3.568-18.702-10.71-25.841
			c-7.137-7.132-15.75-10.704-25.835-10.704c-10.09,0-18.704,3.572-25.841,10.704C113.203,383.296,109.632,391.906,109.632,401.998z
			"/>
	</g>
</g>
</symbol><symbol id="dislike" viewBox="0 0 478.2 478.2" xmlns="http://www.w3.org/2000/svg"><title>dislike</title><path d="M20.63,153.1c-9.8,12.5-14.5,25.9-13.9,39.7.6,15.2,7.4,27.1,13,34.4-6.5,16.2-9,41.7,12.7,61.5,15.9,14.5,42.9,21,80.3,19.2a313.83,313.83,0,0,0,49.2-6.3h.1c5-.9,10.3-2,15.7-3.2.4,6.4-.7,22.3-12.5,58.1-14,42.6-13.2,75.2,2.6,97,16.6,22.9,43.1,24.7,50.9,24.7a25.11,25.11,0,0,0,19.3-8.8c11.1-12.9,9.8-36.7,8.4-47.7,13.2-35.4,50.2-122.2,81.5-146.3a10.7,10.7,0,0,0,1.6-1.4,107.42,107.42,0,0,0,19.6-29.4,41.27,41.27,0,0,0,19.8,5h61a41.63,41.63,0,0,0,41.6-41.6V45.5a41.63,41.63,0,0,0-41.6-41.6h-61a41.51,41.51,0,0,0-24,7.6l-23.5-2.8c-3.6-.5-67.6-8.6-133.3-7.3C176.23.5,165,0,154.63,0c-17.9,0-33.5,1.4-46.5,4.2C77.53,10.7,56.63,23.7,46,42.8a61.21,61.21,0,0,0-6.8,38.3c-19.9,18-23.4,37.9-22.7,51.9A67.55,67.55,0,0,0,20.63,153.1ZM429.93,30.9a14.62,14.62,0,0,1,14.6,14.6V208.1a14.62,14.62,0,0,1-14.6,14.6h-61a14.62,14.62,0,0,1-14.6-14.6V45.6A14.62,14.62,0,0,1,368.93,31h61ZM46.23,164.8A13.44,13.44,0,0,0,48,148.5a41.61,41.61,0,0,1-4.6-16.7c-.7-13.1,5.6-24.7,18.8-34.6a13.63,13.63,0,0,0,4.6-15.4c0-.1-4.3-13.3,2.7-25.8,6.7-12,21.6-20.6,44.2-25.4,18.1-3.9,42.7-4.6,72.9-2.2H188c64.3-1.4,129.3,7,130,7.1h.1l10.1,1.2a42.37,42.37,0,0,0-.9,8.8V208.1a42.3,42.3,0,0,0,1.9,12.4c-1.8,6.7-6.8,21.6-18.6,34.3-44.9,35.6-88.8,155.7-90.7,160.9a12.66,12.66,0,0,0-.6,6.7c1.7,11.2,1.1,24.9-1.3,29-5.3-.1-19.6-1.6-28.2-13.5-10.2-14.1-9.8-39.3,1.2-72.7,16.8-50.9,18.2-77.7,4.9-89.5-6.6-5.9-15.4-6.2-21.8-3.9-6.1,1.4-11.9,2.6-17.4,3.5l-1.3.3c-30.7,6.7-85.7,10.8-104.8-6.6-16.2-14.8-4.7-34.4-3.4-36.5a13.37,13.37,0,0,0-2.4-17.4c-.1-.1-10.6-10-11.1-23.3C33.33,182.9,37.53,173.8,46.23,164.8Z"/></symbol><symbol id="drop" viewBox="0 0 10.91 6.91" xmlns="http://www.w3.org/2000/svg"><defs><style>.ccls-1{fill:none;stroke:#000;stroke-miterlimit:10;stroke-width:2px}</style></defs><title>drop</title><line class="ccls-1" x1="0.71" y1="0.71" x2="6.21" y2="6.21"/><line class="ccls-1" x1="10.21" y1="0.71" x2="4.71" y2="6.21"/></symbol><symbol id="info-2" viewBox="0 0 136 165.77" xmlns="http://www.w3.org/2000/svg"><defs><style>.dcls-1{fill:none;stroke:#000;stroke-miterlimit:10;stroke-width:6px}</style></defs><title>info-2</title><path d="M89.16,62.08l-29,29L47.84,78.67a6,6,0,0,0-8.48,8.49L56,103.76a6,6,0,0,0,8.48,0l33.2-33.2a6,6,0,1,0-8.48-8.48Zm0,0"/><path class="dcls-1" d="M68.52,162.71S3,149.21,3,62.21V28.71c43,0,65-24.5,65-24.5s28,24.5,65,24.5v33.5C133,148.71,68.52,162.71,68.52,162.71Z"/></symbol><symbol id="like" viewBox="0 0 478.2 478.2" style="enable-background:new 0 0 478.2 478.2;" xml:space="preserve" xmlns="http://www.w3.org/2000/svg">
<g>
	<path d="M457.575,325.1c9.8-12.5,14.5-25.9,13.9-39.7c-0.6-15.2-7.4-27.1-13-34.4c6.5-16.2,9-41.7-12.7-61.5
		c-15.9-14.5-42.9-21-80.3-19.2c-26.3,1.2-48.3,6.1-49.2,6.3h-0.1c-5,0.9-10.3,2-15.7,3.2c-0.4-6.4,0.7-22.3,12.5-58.1
		c14-42.6,13.2-75.2-2.6-97c-16.6-22.9-43.1-24.7-50.9-24.7c-7.5,0-14.4,3.1-19.3,8.8c-11.1,12.9-9.8,36.7-8.4,47.7
		c-13.2,35.4-50.2,122.2-81.5,146.3c-0.6,0.4-1.1,0.9-1.6,1.4c-9.2,9.7-15.4,20.2-19.6,29.4c-5.9-3.2-12.6-5-19.8-5h-61
		c-23,0-41.6,18.7-41.6,41.6v162.5c0,23,18.7,41.6,41.6,41.6h61c8.9,0,17.2-2.8,24-7.6l23.5,2.8c3.6,0.5,67.6,8.6,133.3,7.3
		c11.9,0.9,23.1,1.4,33.5,1.4c17.9,0,33.5-1.4,46.5-4.2c30.6-6.5,51.5-19.5,62.1-38.6c8.1-14.6,8.1-29.1,6.8-38.3
		c19.9-18,23.4-37.9,22.7-51.9C461.275,337.1,459.475,330.2,457.575,325.1z M48.275,447.3c-8.1,0-14.6-6.6-14.6-14.6V270.1
		c0-8.1,6.6-14.6,14.6-14.6h61c8.1,0,14.6,6.6,14.6,14.6v162.5c0,8.1-6.6,14.6-14.6,14.6h-61V447.3z M431.975,313.4
		c-4.2,4.4-5,11.1-1.8,16.3c0,0.1,4.1,7.1,4.6,16.7c0.7,13.1-5.6,24.7-18.8,34.6c-4.7,3.6-6.6,9.8-4.6,15.4c0,0.1,4.3,13.3-2.7,25.8
		c-6.7,12-21.6,20.6-44.2,25.4c-18.1,3.9-42.7,4.6-72.9,2.2c-0.4,0-0.9,0-1.4,0c-64.3,1.4-129.3-7-130-7.1h-0.1l-10.1-1.2
		c0.6-2.8,0.9-5.8,0.9-8.8V270.1c0-4.3-0.7-8.5-1.9-12.4c1.8-6.7,6.8-21.6,18.6-34.3c44.9-35.6,88.8-155.7,90.7-160.9
		c0.8-2.1,1-4.4,0.6-6.7c-1.7-11.2-1.1-24.9,1.3-29c5.3,0.1,19.6,1.6,28.2,13.5c10.2,14.1,9.8,39.3-1.2,72.7
		c-16.8,50.9-18.2,77.7-4.9,89.5c6.6,5.9,15.4,6.2,21.8,3.9c6.1-1.4,11.9-2.6,17.4-3.5c0.4-0.1,0.9-0.2,1.3-0.3
		c30.7-6.7,85.7-10.8,104.8,6.6c16.2,14.8,4.7,34.4,3.4,36.5c-3.7,5.6-2.6,12.9,2.4,17.4c0.1,0.1,10.6,10,11.1,23.3
		C444.875,295.3,440.675,304.4,431.975,313.4z"/>
</g>
<g>
</g>
<g>
</g>
<g>
</g>
<g>
</g>
<g>
</g>
<g>
</g>
<g>
</g>
<g>
</g>
<g>
</g>
<g>
</g>
<g>
</g>
<g>
</g>
<g>
</g>
<g>
</g>
<g>
</g>
</symbol><symbol id="next" viewBox="0 0 16.54 26.53" xmlns="http://www.w3.org/2000/svg"><defs><style>.fcls-1{fill:none;stroke:#000;stroke-miterlimit:10;stroke-width:5px}</style></defs><title>next</title><line class="fcls-1" x1="1.77" y1="1.77" x2="14.77" y2="14.77"/><line class="fcls-1" x1="14.77" y1="11.77" x2="1.77" y2="24.77"/></symbol><symbol id="notphoto" viewBox="0 0 409.92 410.88" xmlns="http://www.w3.org/2000/svg"><defs><style>.gcls-1{fill:none}.gcls-2{clip-path:url(#gclip-path)}</style><clipPath id="gclip-path"><rect class="gcls-1" width="409.92" height="410.88"/></clipPath></defs><title>Artboard 1</title><g class="gcls-2"><path d="M128.19,221.58l-115.6-128A25.5,25.5,0,0,0,0,115.52v204.8a25.6,25.6,0,0,0,25.6,25.6H240.5l-47.09-52.14a76.68,76.68,0,0,1-65.22-72.21Zm0,0"/><path d="M384,89.92H294.4L275.88,52.87A25.6,25.6,0,0,0,253,38.72H156.62a25.6,25.6,0,0,0-22.9,14.15l-8.67,17.34L70.23,8.8A25.6,25.6,0,1,0,32.18,43l320,358.4a25.6,25.6,0,1,0,38.05-34.25l-19-21.27H384a25.6,25.6,0,0,0,25.6-25.6V115.52A25.6,25.6,0,0,0,384,89.92ZM189.76,142.67a76.45,76.45,0,0,1,88.06,98.63Zm0,0"/></g></symbol><symbol id="options" viewBox="0 0 391.04 391.04" xmlns="http://www.w3.org/2000/svg"><defs><style>.hcls-1{fill:#2c2f33}.hcls-2{fill:#3c92ca}</style></defs><title>options</title><path class="hcls-1" d="M391,306.4V7.92A7.89,7.89,0,0,0,383.12,0H84.64a7.89,7.89,0,0,0-7.92,7.92V306.4a7.89,7.89,0,0,0,7.92,7.92H383.12A7.89,7.89,0,0,0,391,306.4Zm-15.84-7.92H92.56V15.84H375.2Zm0,0"/><path class="hcls-1" d="M7.92,391H306.4a7.92,7.92,0,1,0,0-15.84H15.84V84.64A7.92,7.92,0,1,0,0,84.64V383.12A7.89,7.89,0,0,0,7.92,391Zm0,0"/><path class="hcls-2" d="M169.44,165H226V221.6a7.92,7.92,0,0,0,15.84,0V165H298.4a7.92,7.92,0,1,0,0-15.84H241.84V92.64a7.92,7.92,0,1,0-15.84,0V149.2H169.44a7.92,7.92,0,1,0,0,15.84Zm0,0"/></symbol><symbol id="pdf" viewBox="0 0 72.27 81.6" xmlns="http://www.w3.org/2000/svg"><title>pdf</title><path d="M19.09,41.81c0-2.2-1.53-3.51-4.22-3.51a9,9,0,0,0-2.23.21v7.05a8.31,8.31,0,0,0,1.81.14c2.87,0,4.64-1.45,4.64-3.9Zm0,0"/><path d="M35.76,38.37a11.2,11.2,0,0,0-2.45.22V54.22a9.72,9.72,0,0,0,1.88.11c4.89,0,8.08-2.66,8.08-8.37,0-5-2.87-7.59-7.52-7.59Zm0,0"/><path d="M67.69,29.19h-2V19.73a1.36,1.36,0,0,0,0-.18,1.57,1.57,0,0,0-.38-1L49.6.55h0a1.56,1.56,0,0,0-.32-.26L49.17.21a1.58,1.58,0,0,0-.32-.13l-.09,0a1.66,1.66,0,0,0-.37,0H9.73a3.21,3.21,0,0,0-3.2,3.2v26h-2A4.57,4.57,0,0,0,0,33.76V57.54a4.57,4.57,0,0,0,4.57,4.57h2V78.4a3.21,3.21,0,0,0,3.2,3.2h52.8a3.21,3.21,0,0,0,3.2-3.2V62.12h2a4.58,4.58,0,0,0,4.57-4.57V33.76a4.57,4.57,0,0,0-4.57-4.57Zm-58-26H46.8V19.57a1.6,1.6,0,0,0,1.6,1.6H62.53v8H9.73ZM49,45.78c0,4.57-1.67,7.73-4,9.68-2.52,2.09-6.34,3.08-11,3.08a47.17,47.17,0,0,1-6.13-.35V34.72a48,48,0,0,1,7.3-.5c4.54,0,7.48.81,9.78,2.55,2.48,1.84,4,4.79,4,9ZM7.29,58.3V34.72a44,44,0,0,1,7.3-.5c3.33,0,5.71.64,7.31,1.91a7,7,0,0,1,2.55,5.53,7.62,7.62,0,0,1-2.2,5.67c-1.84,1.73-4.57,2.52-7.76,2.52a13.75,13.75,0,0,1-1.84-.11V58.3ZM62.53,77.54H9.73V62.12h52.8Zm4.64-38.7H58v5.46h8.58v4.39H58V58.3H52.57V34.4h14.6Zm0,0"/></symbol><symbol id="photo" viewBox="0 0 125.14 108.46" xmlns="http://www.w3.org/2000/svg"><title>photo</title><path d="M120.25,21.58a16.08,16.08,0,0,0-11.8-4.89H93.86L90.53,7.82A12.15,12.15,0,0,0,86,2.31,11.63,11.63,0,0,0,79.26,0H45.89a11.62,11.62,0,0,0-6.75,2.31,12.13,12.13,0,0,0-4.53,5.51l-3.32,8.86H16.69a16.08,16.08,0,0,0-11.8,4.89A16.07,16.07,0,0,0,0,33.37v58.4a16.08,16.08,0,0,0,4.89,11.8,16.08,16.08,0,0,0,11.8,4.89h91.77a16.68,16.68,0,0,0,16.68-16.68V33.37a16.07,16.07,0,0,0-4.89-11.8ZM83.2,83.2a28.13,28.13,0,0,1-20.63,8.57A28.14,28.14,0,0,1,41.94,83.2a28.13,28.13,0,0,1-8.57-20.63,28.13,28.13,0,0,1,8.57-20.63,28.12,28.12,0,0,1,20.63-8.58A28.12,28.12,0,0,1,83.2,41.95a28.11,28.11,0,0,1,8.57,20.63A28.13,28.13,0,0,1,83.2,83.2Zm0,0"/><path d="M62.57,43.8A18.81,18.81,0,0,0,43.8,62.57,18.81,18.81,0,0,0,62.57,81.34,18.81,18.81,0,0,0,81.34,62.57,18.81,18.81,0,0,0,62.57,43.8Zm0,0"/></symbol><symbol id="prev" viewBox="0 0 16.54 26.53" xmlns="http://www.w3.org/2000/svg"><defs><style>.kcls-1{fill:none;stroke:#000;stroke-miterlimit:10;stroke-width:5px}</style></defs><title>prev</title><line class="kcls-1" x1="14.77" y1="24.77" x2="1.77" y2="11.77"/><line class="kcls-1" x1="1.77" y1="14.77" x2="14.77" y2="1.77"/></symbol><symbol id="remove" viewBox="0 0 357 357" style="enable-background:new 0 0 357 357;" xml:space="preserve" xmlns="http://www.w3.org/2000/svg">
<g>
	<g id="lclose">
		<polygon points="357,35.7 321.3,0 178.5,142.8 35.7,0 0,35.7 142.8,178.5 0,321.3 35.7,357 178.5,214.2 321.3,357 357,321.3 
			214.2,178.5 		"/>
	</g>
</g>
<g>
</g>
<g>
</g>
<g>
</g>
<g>
</g>
<g>
</g>
<g>
</g>
<g>
</g>
<g>
</g>
<g>
</g>
<g>
</g>
<g>
</g>
<g>
</g>
<g>
</g>
<g>
</g>
<g>
</g>
</symbol><symbol id="review" viewBox="0 0 431.26 359.39" xmlns="http://www.w3.org/2000/svg"><title>review</title><path d="M62.89,359.39a9,9,0,0,1-9-9V287.51H27a27,27,0,0,1-27-27V27A27,27,0,0,1,27,0H404.31a27,27,0,0,1,27,27v233.6a27,27,0,0,1-27,27H138.49L69.25,356.75a9,9,0,0,1-6.36,2.63ZM27,18a9,9,0,0,0-9,9v233.6a9,9,0,0,0,9,9H62.89a9,9,0,0,1,9,9v50.19l56.54-56.54a9,9,0,0,1,6.35-2.63H404.31a9,9,0,0,0,9-9V27a9,9,0,0,0-9-9Zm0,0"/><path d="M152.74,161.72a18,18,0,1,1,18-18,18,18,0,0,1-18,18Zm0,0"/><path d="M296.49,161.72a18,18,0,1,1,18-18,18,18,0,0,1-18,18Zm0,0"/><path d="M224.61,161.72a18,18,0,1,1,18-18,18,18,0,0,1-18,18Zm0,0"/></symbol><symbol viewBox="0 0 19.481 19.481" enable-background="new 0 0 19.481 19.481" id="star" xmlns="http://www.w3.org/2000/svg">
  <g>
    <path d="m10.201,.758l2.478,5.865 6.344,.545c0.44,0.038 0.619,0.587 0.285,0.876l-4.812,4.169 1.442,6.202c0.1,0.431-0.367,0.77-0.745,0.541l-5.452-3.288-5.452,3.288c-0.379,0.228-0.845-0.111-0.745-0.541l1.442-6.202-4.813-4.17c-0.334-0.289-0.156-0.838 0.285-0.876l6.344-.545 2.478-5.864c0.172-0.408 0.749-0.408 0.921,0z"/>
  </g>
</symbol><symbol id="video" viewBox="0 0 267.84 192.96" xmlns="http://www.w3.org/2000/svg"><defs><style>.ocls-1{fill:none}.ocls-2{clip-path:url(#oclip-path)}</style><clipPath id="oclip-path"><rect class="ocls-1" width="267.84" height="192.96"/></clipPath></defs><title>video</title><g class="ocls-2"><path d="M140.26,192h0c-30.44,0-63.58-1-98.5-2.84-20.62-1.13-36.63-17-38.91-38.68A516.67,516.67,0,0,1,2.86,42C5.13,20.51,21.11,4.61,41.72,3.32A1493,1493,0,0,1,226,3.32C246.82,4.58,262.43,20.1,264.85,42a517.83,517.83,0,0,1,0,108.51c-2.2,21.63-17.8,37.18-38.83,38.68C199.56,191,170.71,192,140.26,192ZM133.14,10.75c-30.34,0-60.89,1-90.79,2.83-15.75,1-27.51,12.84-29.28,29.48a506.67,506.67,0,0,0,0,106.34c1.77,16.78,13.51,28.63,29.23,29.49,34.73,1.87,67.69,2.83,97.94,2.83s58.81-1,85-2.82c15.87-1.14,27.66-13,29.33-29.47a506.13,506.13,0,0,0,0-106.34c-1.83-16.69-13.6-28.55-29.27-29.5-30.82-1.88-61.85-2.83-92.2-2.83ZM107.66,59.81v70.57l67.77-35Zm0,0"/></g></symbol></svg>